<svg xmlns="http://www.w3.org/2000/svg" width="800" height="1040" viewBox="0 0 800 1040">
  <defs>
    <linearGradient id="bg6" x1="0" y1="0" x2="0" y2="1">
      <stop offset="0%" stop-color="#8ec8f4"/>
      <stop offset="52%" stop-color="#f4d6b6"/>
      <stop offset="100%" stop-color="#f8efe5"/>
    </linearGradient>
  </defs>
  <rect width="800" height="1040" fill="url(#bg6)"/>
  <circle cx="640" cy="180" r="86" fill="#fff6e7" fill-opacity="0.88"/>
  <path d="M88 296 C142 272, 180 246, 228 220" fill="none" stroke="#ffffff" stroke-opacity="0.5" stroke-width="4"/>
  <path d="M230 214 q18 -16 36 0 q-18 10 -36 0z" fill="#3c5668"/>
  <path d="M286 250 q20 -17 38 0 q-20 10 -38 0z" fill="#3c5668"/>
  <path d="M350 216 q18 -16 35 0 q-18 10 -35 0z" fill="#3c5668"/>
  <path d="M420 260 q22 -18 42 0 q-22 11 -42 0z" fill="#3c5668"/>
  <path d="M500 220 q18 -15 35 0 q-18 9 -35 0z" fill="#3c5668"/>
  <path d="M0 784 C180 710, 310 800, 450 744 S650 680, 800 760 L800 1040 L0 1040 Z" fill="#f0cda5"/>
  <path d="M160 760 l72 180 h-144 z" fill="#365264"/>
  <circle cx="160" cy="720" r="38" fill="#365264"/>
  <path d="M145 788 l-44 48 M177 792 l54 46" stroke="#365264" stroke-width="12" stroke-linecap="round"/>
  <text x="400" y="805" text-anchor="middle" fill="#294253" font-family="Cairo, Arial" font-size="60" font-weight="800">أين تذهب العصافير؟</text>
  <text x="400" y="882" text-anchor="middle" fill="#3e6177" font-family="Cairo, Arial" font-size="30">قصص للأطفال</text>
  <text x="400" y="940" text-anchor="middle" fill="#b07327" font-family="Cairo, Arial" font-size="28">2026</text>
</svg>
