<svg xmlns="http://www.w3.org/2000/svg" width="800" height="1040" viewBox="0 0 800 1040">
  <defs>
    <linearGradient id="bg2" x1="0" y1="0" x2="0" y2="1">
      <stop offset="0%" stop-color="#35536a"/>
      <stop offset="55%" stop-color="#6b8ea3"/>
      <stop offset="100%" stop-color="#f2c98d"/>
    </linearGradient>
  </defs>
  <rect width="800" height="1040" fill="url(#bg2)"/>
  <circle cx="630" cy="210" r="118" fill="#fce3ba" fill-opacity="0.22"/>
  <path d="M0 620 C180 550, 300 610, 430 560 S660 500, 800 560 L800 1040 L0 1040 Z" fill="#e6c092" fill-opacity="0.42"/>
  <path d="M0 700 C170 620, 310 700, 450 650 S650 600, 800 670 L800 1040 L0 1040 Z" fill="#163648" fill-opacity="0.45"/>
  <path d="M380 520 L430 740 L330 740 Z" fill="#13252e"/>
  <circle cx="390" cy="460" r="46" fill="#13252e"/>
  <path d="M470 430 C560 410, 610 450, 700 420" fill="none" stroke="#f7ebd8" stroke-opacity="0.4" stroke-width="3"/>
  <path d="M492 404 l18 -10 M532 394 l20 -6 M574 396 l18 2" stroke="#f7ebd8" stroke-opacity="0.35" stroke-width="3"/>
  <text x="400" y="815" text-anchor="middle" fill="#fff8ef" font-family="Cairo, Arial" font-size="62" font-weight="800">غربة من نوع آخر</text>
  <text x="400" y="885" text-anchor="middle" fill="#fdf2de" font-family="Cairo, Arial" font-size="30">مجموعة قصصية</text>
  <text x="400" y="935" text-anchor="middle" fill="#f2d3a3" font-family="Cairo, Arial" font-size="28">2017</text>
</svg>
